<svg xmlns="http://www.w3.org/2000/svg" xmlns:xlink="http://www.w3.org/1999/xlink" width="1080" zoomAndPan="magnify" viewBox="0 0 810 809.999993" height="1080" preserveAspectRatio="xMidYMid meet" version="1.0"><defs><clipPath id="e324a40965"><path d="M 104.515625 99.289062 L 347.515625 99.289062 L 347.515625 342.289062 L 104.515625 342.289062 Z M 104.515625 99.289062 " clip-rule="nonzero"/></clipPath><clipPath id="76bc31efbb"><path d="M 226.015625 99.289062 C 158.914062 99.289062 104.515625 153.6875 104.515625 220.789062 C 104.515625 287.894531 158.914062 342.289062 226.015625 342.289062 C 293.117188 342.289062 347.515625 287.894531 347.515625 220.789062 C 347.515625 153.6875 293.117188 99.289062 226.015625 99.289062 Z M 226.015625 99.289062 " clip-rule="nonzero"/></clipPath></defs><path fill="#006400" d="M 810 405 C 810 411.628906 809.835938 418.253906 809.511719 424.871094 C 809.1875 431.492188 808.699219 438.101562 808.050781 444.695312 C 807.398438 451.292969 806.589844 457.871094 805.617188 464.425781 C 804.644531 470.980469 803.511719 477.511719 802.21875 484.011719 C 800.925781 490.511719 799.472656 496.976562 797.863281 503.40625 C 796.253906 509.835938 794.484375 516.222656 792.5625 522.566406 C 790.636719 528.90625 788.558594 535.199219 786.324219 541.441406 C 784.09375 547.679688 781.707031 553.863281 779.171875 559.988281 C 776.632812 566.109375 773.949219 572.167969 771.117188 578.160156 C 768.28125 584.152344 765.300781 590.070312 762.179688 595.914062 C 759.054688 601.761719 755.789062 607.527344 752.378906 613.210938 C 748.972656 618.898438 745.425781 624.496094 741.746094 630.003906 C 738.0625 635.515625 734.246094 640.933594 730.300781 646.257812 C 726.351562 651.582031 722.273438 656.804688 718.070312 661.929688 C 713.863281 667.054688 709.535156 672.070312 705.085938 676.980469 C 700.632812 681.890625 696.066406 686.691406 691.378906 691.378906 C 686.691406 696.066406 681.890625 700.632812 676.980469 705.085938 C 672.070312 709.535156 667.054688 713.863281 661.929688 718.070312 C 656.804688 722.273438 651.582031 726.351562 646.257812 730.300781 C 640.933594 734.246094 635.515625 738.0625 630.003906 741.746094 C 624.496094 745.425781 618.898438 748.972656 613.210938 752.378906 C 607.527344 755.789062 601.761719 759.054688 595.914062 762.179688 C 590.070312 765.300781 584.152344 768.28125 578.160156 771.117188 C 572.167969 773.949219 566.109375 776.632812 559.988281 779.171875 C 553.863281 781.707031 547.679688 784.09375 541.441406 786.324219 C 535.199219 788.558594 528.90625 790.636719 522.566406 792.5625 C 516.222656 794.484375 509.835938 796.253906 503.40625 797.863281 C 496.976562 799.472656 490.511719 800.925781 484.011719 802.21875 C 477.511719 803.511719 470.980469 804.644531 464.425781 805.617188 C 457.871094 806.589844 451.292969 807.398438 444.695312 808.050781 C 438.101562 808.699219 431.492188 809.1875 424.871094 809.511719 C 418.253906 809.835938 411.628906 810 405 810 C 398.371094 810 391.746094 809.835938 385.128906 809.511719 C 378.507812 809.1875 371.898438 808.699219 365.304688 808.050781 C 358.707031 807.398438 352.128906 806.589844 345.574219 805.617188 C 339.019531 804.644531 332.488281 803.511719 325.988281 802.21875 C 319.488281 800.925781 313.023438 799.472656 306.59375 797.863281 C 300.164062 796.253906 293.777344 794.484375 287.433594 792.5625 C 281.09375 790.636719 274.800781 788.558594 268.558594 786.324219 C 262.320312 784.09375 256.136719 781.707031 250.011719 779.171875 C 243.890625 776.632812 237.832031 773.949219 231.839844 771.117188 C 225.847656 768.28125 219.929688 765.300781 214.085938 762.179688 C 208.238281 759.054688 202.472656 755.789062 196.789062 752.378906 C 191.101562 748.972656 185.503906 745.425781 179.992188 741.746094 C 174.484375 738.0625 169.066406 734.246094 163.742188 730.300781 C 158.417969 726.351562 153.195312 722.273438 148.070312 718.070312 C 142.945312 713.863281 137.929688 709.535156 133.019531 705.085938 C 128.109375 700.632812 123.308594 696.066406 118.621094 691.378906 C 113.933594 686.691406 109.367188 681.890625 104.914062 676.980469 C 100.464844 672.070312 96.136719 667.054688 91.929688 661.929688 C 87.726562 656.804688 83.648438 651.582031 79.699219 646.257812 C 75.753906 640.933594 71.9375 635.515625 68.253906 630.003906 C 64.574219 624.496094 61.027344 618.898438 57.621094 613.210938 C 54.210938 607.527344 50.945312 601.761719 47.820312 595.914062 C 44.699219 590.070312 41.71875 584.152344 38.882812 578.160156 C 36.050781 572.167969 33.367188 566.109375 30.828125 559.988281 C 28.292969 553.863281 25.90625 547.679688 23.675781 541.441406 C 21.441406 535.199219 19.363281 528.90625 17.4375 522.566406 C 15.515625 516.222656 13.746094 509.835938 12.136719 503.40625 C 10.527344 496.976562 9.074219 490.511719 7.78125 484.011719 C 6.488281 477.511719 5.355469 470.980469 4.382812 464.425781 C 3.410156 457.871094 2.601562 451.292969 1.949219 444.695312 C 1.300781 438.101562 0.8125 431.492188 0.488281 424.871094 C 0.164062 418.253906 0 411.628906 0 405 C 0 398.371094 0.164062 391.746094 0.488281 385.128906 C 0.8125 378.507812 1.300781 371.898438 1.949219 365.304688 C 2.601562 358.707031 3.410156 352.128906 4.382812 345.574219 C 5.355469 339.019531 6.488281 332.488281 7.78125 325.988281 C 9.074219 319.488281 10.527344 313.023438 12.136719 306.59375 C 13.746094 300.164062 15.515625 293.777344 17.4375 287.433594 C 19.363281 281.09375 21.441406 274.800781 23.675781 268.558594 C 25.90625 262.320312 28.292969 256.136719 30.828125 250.011719 C 33.367188 243.890625 36.050781 237.832031 38.882812 231.839844 C 41.71875 225.847656 44.699219 219.929688 47.820312 214.085938 C 50.945312 208.238281 54.210938 202.472656 57.621094 196.789062 C 61.027344 191.101562 64.574219 185.503906 68.253906 179.992188 C 71.9375 174.484375 75.753906 169.066406 79.699219 163.742188 C 83.648438 158.417969 87.726562 153.195312 91.929688 148.070312 C 96.136719 142.945312 100.464844 137.929688 104.914062 133.019531 C 109.367188 128.109375 113.933594 123.308594 118.621094 118.621094 C 123.308594 113.933594 128.109375 109.367188 133.019531 104.914062 C 137.929688 100.464844 142.945312 96.136719 148.070312 91.929688 C 153.195312 87.726562 158.417969 83.648438 163.742188 79.699219 C 169.066406 75.753906 174.484375 71.9375 179.992188 68.253906 C 185.503906 64.574219 191.101562 61.027344 196.789062 57.621094 C 202.472656 54.210938 208.238281 50.945312 214.085938 47.820312 C 219.929688 44.699219 225.847656 41.71875 231.839844 38.882812 C 237.832031 36.050781 243.890625 33.367188 250.011719 30.828125 C 256.136719 28.292969 262.320312 25.90625 268.558594 23.675781 C 274.800781 21.441406 281.09375 19.363281 287.433594 17.4375 C 293.777344 15.515625 300.164062 13.746094 306.59375 12.136719 C 313.023438 10.527344 319.488281 9.074219 325.988281 7.78125 C 332.488281 6.488281 339.019531 5.355469 345.574219 4.382812 C 352.128906 3.410156 358.707031 2.601562 365.304688 1.949219 C 371.898438 1.300781 378.507812 0.8125 385.128906 0.488281 C 391.746094 0.164062 398.371094 0 405 0 C 411.628906 0 418.253906 0.164062 424.871094 0.488281 C 431.492188 0.8125 438.101562 1.300781 444.695312 1.949219 C 451.292969 2.601562 457.871094 3.410156 464.425781 4.382812 C 470.980469 5.355469 477.511719 6.488281 484.011719 7.78125 C 490.511719 9.074219 496.976562 10.527344 503.40625 12.136719 C 509.835938 13.746094 516.222656 15.515625 522.566406 17.4375 C 528.90625 19.363281 535.199219 21.441406 541.441406 23.675781 C 547.679688 25.90625 553.863281 28.292969 559.988281 30.828125 C 566.109375 33.367188 572.167969 36.050781 578.160156 38.882812 C 584.152344 41.71875 590.070312 44.699219 595.914062 47.820312 C 601.761719 50.945312 607.527344 54.210938 613.210938 57.621094 C 618.898438 61.027344 624.496094 64.574219 630.003906 68.253906 C 635.515625 71.9375 640.933594 75.753906 646.257812 79.699219 C 651.582031 83.648438 656.804688 87.726562 661.929688 91.929688 C 667.054688 96.136719 672.070312 100.464844 676.980469 104.914062 C 681.890625 109.367188 686.691406 113.933594 691.378906 118.621094 C 696.066406 123.308594 700.632812 128.109375 705.085938 133.019531 C 709.535156 137.929688 713.863281 142.945312 718.070312 148.070312 C 722.273438 153.195312 726.351562 158.417969 730.300781 163.742188 C 734.246094 169.066406 738.0625 174.484375 741.746094 179.992188 C 745.425781 185.503906 748.972656 191.101562 752.378906 196.789062 C 755.789062 202.472656 759.054688 208.238281 762.179688 214.085938 C 765.300781 219.929688 768.28125 225.847656 771.117188 231.839844 C 773.949219 237.832031 776.632812 243.890625 779.171875 250.011719 C 781.707031 256.136719 784.09375 262.320312 786.324219 268.558594 C 788.558594 274.800781 790.636719 281.09375 792.5625 287.433594 C 794.484375 293.777344 796.253906 300.164062 797.863281 306.59375 C 799.472656 313.023438 800.925781 319.488281 802.21875 325.988281 C 803.511719 332.488281 804.644531 339.019531 805.617188 345.574219 C 806.589844 352.128906 807.398438 358.707031 808.050781 365.304688 C 808.699219 371.898438 809.1875 378.507812 809.511719 385.128906 C 809.835938 391.746094 810 398.371094 810 405 Z M 810 405 " fill-opacity="1" fill-rule="nonzero"/><path fill="#ffffff" d="M 597.457031 372.167969 L 437.832031 372.167969 L 437.832031 212.542969 C 437.832031 211.46875 437.777344 210.394531 437.675781 209.324219 C 437.570312 208.253906 437.410156 207.195312 437.199219 206.140625 C 436.992188 205.085938 436.730469 204.042969 436.417969 203.011719 C 436.105469 201.984375 435.746094 200.972656 435.332031 199.980469 C 434.921875 198.984375 434.460938 198.015625 433.957031 197.066406 C 433.449219 196.117188 432.894531 195.199219 432.296875 194.304688 C 431.703125 193.410156 431.0625 192.546875 430.378906 191.714844 C 429.699219 190.882812 428.976562 190.089844 428.214844 189.328125 C 427.457031 188.566406 426.660156 187.847656 425.828125 187.164062 C 424.996094 186.480469 424.132812 185.84375 423.242188 185.246094 C 422.347656 184.648438 421.425781 184.09375 420.476562 183.589844 C 419.527344 183.082031 418.558594 182.621094 417.5625 182.210938 C 416.570312 181.800781 415.558594 181.4375 414.53125 181.125 C 413.5 180.8125 412.460938 180.550781 411.40625 180.34375 C 410.351562 180.132812 409.289062 179.976562 408.21875 179.871094 C 407.148438 179.765625 406.074219 179.710938 405 179.710938 C 403.925781 179.710938 402.851562 179.765625 401.78125 179.871094 C 400.710938 179.976562 399.648438 180.132812 398.59375 180.34375 C 397.539062 180.550781 396.5 180.8125 395.46875 181.125 C 394.441406 181.4375 393.429688 181.800781 392.4375 182.210938 C 391.441406 182.621094 390.472656 183.082031 389.523438 183.589844 C 388.574219 184.09375 387.652344 184.648438 386.757812 185.246094 C 385.867188 185.84375 385.003906 186.480469 384.171875 187.164062 C 383.339844 187.847656 382.542969 188.566406 381.785156 189.328125 C 381.023438 190.089844 380.300781 190.882812 379.621094 191.714844 C 378.9375 192.546875 378.296875 193.410156 377.703125 194.304688 C 377.105469 195.199219 376.550781 196.117188 376.042969 197.066406 C 375.539062 198.015625 375.078125 198.984375 374.667969 199.980469 C 374.253906 200.972656 373.894531 201.984375 373.582031 203.011719 C 373.269531 204.042969 373.007812 205.085938 372.796875 206.140625 C 372.589844 207.195312 372.429688 208.253906 372.324219 209.324219 C 372.21875 210.394531 372.167969 211.46875 372.167969 212.542969 L 372.167969 372.167969 L 212.542969 372.167969 C 211.46875 372.167969 210.398438 372.222656 209.328125 372.328125 C 208.257812 372.433594 207.195312 372.59375 206.144531 372.804688 C 205.089844 373.015625 204.046875 373.277344 203.019531 373.589844 C 201.992188 373.902344 200.980469 374.265625 199.988281 374.675781 C 198.996094 375.089844 198.027344 375.546875 197.078125 376.054688 C 196.132812 376.5625 195.210938 377.113281 194.320312 377.710938 C 193.425781 378.308594 192.5625 378.949219 191.734375 379.632812 C 190.902344 380.3125 190.109375 381.035156 189.347656 381.796875 C 188.589844 382.554688 187.867188 383.351562 187.1875 384.183594 C 186.507812 385.011719 185.867188 385.875 185.269531 386.769531 C 184.675781 387.664062 184.121094 388.585938 183.617188 389.53125 C 183.109375 390.480469 182.652344 391.449219 182.238281 392.441406 C 181.828125 393.4375 181.46875 394.445312 181.15625 395.476562 C 180.84375 396.503906 180.582031 397.542969 180.375 398.597656 C 180.164062 399.652344 180.007812 400.714844 179.902344 401.785156 C 179.796875 402.851562 179.742188 403.925781 179.742188 405 C 179.742188 406.074219 179.796875 407.148438 179.902344 408.214844 C 180.007812 409.285156 180.164062 410.347656 180.375 411.402344 C 180.582031 412.457031 180.84375 413.496094 181.15625 414.523438 C 181.46875 415.554688 181.828125 416.5625 182.238281 417.558594 C 182.652344 418.550781 183.109375 419.519531 183.617188 420.46875 C 184.121094 421.417969 184.675781 422.335938 185.269531 423.230469 C 185.867188 424.125 186.507812 424.988281 187.1875 425.816406 C 187.867188 426.648438 188.589844 427.445312 189.347656 428.203125 C 190.109375 428.964844 190.902344 429.6875 191.734375 430.367188 C 192.5625 431.050781 193.425781 431.691406 194.320312 432.289062 C 195.210938 432.886719 196.132812 433.4375 197.078125 433.945312 C 198.027344 434.453125 198.996094 434.910156 199.988281 435.324219 C 200.980469 435.734375 201.992188 436.097656 203.019531 436.410156 C 204.046875 436.722656 205.089844 436.984375 206.144531 437.195312 C 207.195312 437.40625 208.257812 437.566406 209.328125 437.671875 C 210.398438 437.777344 211.46875 437.832031 212.542969 437.832031 L 372.167969 437.832031 L 372.167969 597.457031 C 372.167969 598.53125 372.21875 599.605469 372.324219 600.675781 C 372.429688 601.746094 372.589844 602.804688 372.800781 603.859375 C 373.007812 604.914062 373.269531 605.957031 373.582031 606.988281 C 373.894531 608.015625 374.253906 609.027344 374.667969 610.019531 C 375.078125 611.015625 375.539062 611.984375 376.042969 612.933594 C 376.550781 613.882812 377.105469 614.800781 377.699219 615.695312 C 378.296875 616.589844 378.9375 617.453125 379.621094 618.285156 C 380.300781 619.117188 381.023438 619.910156 381.785156 620.671875 C 382.542969 621.433594 383.339844 622.152344 384.171875 622.835938 C 385.003906 623.519531 385.867188 624.15625 386.757812 624.753906 C 387.652344 625.351562 388.574219 625.90625 389.523438 626.410156 C 390.472656 626.917969 391.441406 627.378906 392.4375 627.789062 C 393.429688 628.199219 394.441406 628.5625 395.46875 628.875 C 396.5 629.1875 397.539062 629.449219 398.59375 629.65625 C 399.648438 629.867188 400.710938 630.023438 401.78125 630.128906 C 402.851562 630.234375 403.925781 630.289062 405 630.289062 C 406.074219 630.289062 407.148438 630.234375 408.21875 630.128906 C 409.289062 630.023438 410.351562 629.867188 411.40625 629.65625 C 412.460938 629.449219 413.5 629.1875 414.53125 628.875 C 415.558594 628.5625 416.570312 628.199219 417.5625 627.789062 C 418.558594 627.378906 419.527344 626.917969 420.476562 626.410156 C 421.425781 625.90625 422.347656 625.351562 423.242188 624.753906 C 424.132812 624.15625 424.996094 623.519531 425.828125 622.835938 C 426.660156 622.152344 427.457031 621.433594 428.214844 620.671875 C 428.976562 619.910156 429.699219 619.117188 430.378906 618.285156 C 431.0625 617.453125 431.703125 616.589844 432.296875 615.695312 C 432.894531 614.800781 433.449219 613.882812 433.957031 612.933594 C 434.460938 611.984375 434.921875 611.015625 435.332031 610.019531 C 435.746094 609.027344 436.105469 608.015625 436.417969 606.988281 C 436.730469 605.957031 436.992188 604.914062 437.199219 603.859375 C 437.410156 602.804688 437.570312 601.746094 437.675781 600.675781 C 437.777344 599.605469 437.832031 598.53125 437.832031 597.457031 L 437.832031 437.832031 L 597.457031 437.832031 C 598.53125 437.832031 599.601562 437.777344 600.671875 437.671875 C 601.742188 437.566406 602.804688 437.40625 603.855469 437.195312 C 604.910156 436.984375 605.953125 436.722656 606.980469 436.410156 C 608.007812 436.097656 609.019531 435.734375 610.011719 435.324219 C 611.003906 434.910156 611.972656 434.453125 612.921875 433.945312 C 613.867188 433.4375 614.789062 432.886719 615.679688 432.289062 C 616.574219 431.691406 617.4375 431.050781 618.265625 430.367188 C 619.097656 429.6875 619.890625 428.964844 620.652344 428.203125 C 621.410156 427.445312 622.132812 426.648438 622.8125 425.816406 C 623.492188 424.988281 624.132812 424.125 624.730469 423.230469 C 625.324219 422.335938 625.878906 421.417969 626.382812 420.46875 C 626.890625 419.519531 627.347656 418.550781 627.761719 417.558594 C 628.171875 416.5625 628.53125 415.554688 628.84375 414.523438 C 629.15625 413.496094 629.417969 412.457031 629.625 411.402344 C 629.835938 410.347656 629.992188 409.285156 630.097656 408.214844 C 630.203125 407.148438 630.257812 406.074219 630.257812 405 C 630.257812 403.925781 630.203125 402.851562 630.097656 401.785156 C 629.992188 400.714844 629.835938 399.652344 629.625 398.597656 C 629.417969 397.542969 629.15625 396.503906 628.84375 395.476562 C 628.53125 394.445312 628.171875 393.4375 627.761719 392.441406 C 627.347656 391.449219 626.890625 390.480469 626.382812 389.53125 C 625.878906 388.585938 625.324219 387.664062 624.730469 386.769531 C 624.132812 385.875 623.492188 385.011719 622.8125 384.183594 C 622.132812 383.351562 621.410156 382.554688 620.652344 381.796875 C 619.890625 381.035156 619.097656 380.3125 618.265625 379.632812 C 617.4375 378.949219 616.574219 378.308594 615.679688 377.710938 C 614.789062 377.113281 613.867188 376.5625 612.921875 376.054688 C 611.972656 375.546875 611.003906 375.089844 610.011719 374.675781 C 609.019531 374.265625 608.007812 373.902344 606.980469 373.589844 C 605.953125 373.277344 604.910156 373.015625 603.855469 372.804688 C 602.804688 372.59375 601.742188 372.433594 600.671875 372.328125 C 599.601562 372.222656 598.53125 372.167969 597.457031 372.167969 Z M 597.457031 372.167969 " fill-opacity="1" fill-rule="nonzero"/><g clip-path="url(#e324a40965)"><g clip-path="url(#76bc31efbb)"><path fill="#006400" d="M 104.515625 99.289062 L 347.515625 99.289062 L 347.515625 342.289062 L 104.515625 342.289062 Z M 104.515625 99.289062 " fill-opacity="1" fill-rule="nonzero"/></g></g></svg>